<?xml version="1.0" encoding="UTF-8"?>
<svg id="Capa_1" data-name="Capa 1" xmlns="http://www.w3.org/2000/svg" version="1.1" viewBox="0 0 595.28 841.89">
  <defs>
    <style>
      .cls-1 {
        fill: #fff;
        stroke: #1d1d1b;
        stroke-miterlimit: 10;
      }
    </style>
  </defs>
  <path class="cls-1" d="M5.67,110S50.67-33,201.67,30c107.35,44.79,184.88,27.92,220.73,14.42,23.39-8.81,48.98-10.38,73.21-4.25,42.3,10.7,104.77,51.76,76.96,120.44-3.3,8.15-5.71,22-5.67,30.78.21,38.9-40.79,61.92-184.94,73.55-9.04.73-18.08-1.28-25.98-5.72-22.33-12.56-76.2-34.6-128.31,6.78-68,54-191.93-3.64-190,0,24.33,46-67,56,8,128,52.21,50.12,25.43,109.93,4.33,141.66-11.12,16.72-10.24,38.83,2.68,54.22,22.61,26.93,64.96,55.02,129.99,13.13,85.6-55.15,163.08-21.54,187.81-7.93,4.71,2.59,8.88,6.03,12.4,10.1,12.2,14.12,48.56,49.98,102.16,47.74,15.83-.66,29.62-4.51,40.96-9.31,26.6-11.26,57.05,4.32,62.59,32.67.18.92.35,1.86.5,2.81,5.48,34.05-33.19,50.11-37.41,89.93-2.7,25.43,8.24,47.34,17,61"/>
</svg>