<?xml version="1.0" encoding="UTF-8"?>
<svg id="Capa_1" data-name="Capa 1" xmlns="http://www.w3.org/2000/svg" version="1.1" viewBox="0 0 595.28 841.89">
  <defs>
    <style>
      .cls-1 {
        fill: none;
        stroke: #1d1d1b;
        stroke-miterlimit: 10;
      }
    </style>
  </defs>
  <path class="cls-1" d="M245.03,0l79.55,110.71c7.29,10.15.04,24.29-12.45,24.29h-59.77c-12.44,0-21.47-11.82-18.22-23.82,7.66-28.26,24.19-64.96,51.39-9.18,22.46,46.06,35.38,80.81,42.35,102.21,4.94,15.16,3.34,31.67-4.38,45.62-21.63,39.03-68.4,114.08-64.47,115.18,115,32-83-73-40-100s94,110,94,110c0,0,66,136,5,186s-118-82-76-75,139,36,107,98c-20.53,39.78-25.83,88.62-26.99,118.52-.61,15.67,12.58,28.49,28.21,27.27,22.59-1.76,48.29-8.42,33.78-30.79s-47.36-23.77-72.76-21.85c-18.3,1.38-32.65,16.26-33.3,34.6l-2.69,75.72c-.57,16.16-18.57,25.5-32.11,16.66-31.49-20.58-69.91-50.45-25.15-49.13,68,2,94,86.89,94,86.89"/>
</svg>