<?xml version="1.0" standalone="no"?><svg xmlns="http://www.w3.org/2000/svg" viewBox="0 0 1440 320"><path fill="#2ba866" fill-opacity="1" d="M0,160L24,144C48,128,96,96,144,74.7C192,53,240,43,288,69.3C336,96,384,160,432,165.3C480,171,528,117,576,80C624,43,672,21,720,26.7C768,32,816,64,864,106.7C912,149,960,203,1008,197.3C1056,192,1104,128,1152,122.7C1200,117,1248,171,1296,213.3C1344,256,1392,288,1416,304L1440,320L1440,320L1416,320C1392,320,1344,320,1296,320C1248,320,1200,320,1152,320C1104,320,1056,320,1008,320C960,320,912,320,864,320C816,320,768,320,720,320C672,320,624,320,576,320C528,320,480,320,432,320C384,320,336,320,288,320C240,320,192,320,144,320C96,320,48,320,24,320L0,320Z"></path></svg>