<?xml version="1.0" standalone="no"?><svg xmlns="http://www.w3.org/2000/svg" viewBox="0 0 1440 320"><path fill="#7B2B2A" fill-opacity="1" d="M0,32L24,74.7C48,117,96,203,144,250.7C192,299,240,309,288,304C336,299,384,277,432,245.3C480,213,528,171,576,160C624,149,672,171,720,186.7C768,203,816,213,864,229.3C912,245,960,267,1008,234.7C1056,203,1104,117,1152,85.3C1200,53,1248,75,1296,106.7C1344,139,1392,181,1416,202.7L1440,224L1440,320L1416,320C1392,320,1344,320,1296,320C1248,320,1200,320,1152,320C1104,320,1056,320,1008,320C960,320,912,320,864,320C816,320,768,320,720,320C672,320,624,320,576,320C528,320,480,320,432,320C384,320,336,320,288,320C240,320,192,320,144,320C96,320,48,320,24,320L0,320Z"></path></svg>