<?xml version="1.0" standalone="no"?><svg xmlns="http://www.w3.org/2000/svg" viewBox="0 0 1440 320"><path fill="#732929" fill-opacity="1" d="M0,0L34.3,21.3C68.6,43,137,85,206,85.3C274.3,85,343,43,411,64C480,85,549,171,617,181.3C685.7,192,754,128,823,122.7C891.4,117,960,171,1029,170.7C1097.1,171,1166,117,1234,96C1302.9,75,1371,85,1406,90.7L1440,96L1440,0L1405.7,0C1371.4,0,1303,0,1234,0C1165.7,0,1097,0,1029,0C960,0,891,0,823,0C754.3,0,686,0,617,0C548.6,0,480,0,411,0C342.9,0,274,0,206,0C137.1,0,69,0,34,0L0,0Z"></path></svg>